<?xml version="1.0" encoding="UTF-8"?>
<svg id="Sovendus_Logo" xmlns="http://www.w3.org/2000/svg" viewBox="0 0 337.6 35.23">
  <defs>
    <style>
      .cls-1 {
        fill: #2a3049;
      }
    </style>
  </defs>
  <g id="_1st_S" data-name="1st S">
    <path class="cls-1" d="m27.2,24.4c0,6-4.6,10.8-13.5,10.8-5.1.1-10.1-2-13.7-5.6l3.2-5.6c2.7,3,6.6,4.7,10.6,4.8,4.5,0,7-1.6,7-4s-2.4-3.5-6.8-4.2C4.5,19.1,1.2,15.6,1.2,10.5,1.2,4.9,5.7,0,14.1,0,18.3,0,22.4,1.4,25.6,4.1l-2.7,5.5c-2.5-2.1-5.7-3.2-8.9-3.2-3.4,0-6.4,1-6.4,3.7,0,2.3,2,3.2,6.8,4,7.4,1.1,12.8,3.1,12.8,10.3"/>
  </g>
  <polygon id="V" class="cls-1" points="89.2 .8 96.4 .8 105.2 23.2 114 .8 121.2 .8 107.6 34.4 102.8 34.4 89.2 .8"/>
  <polygon id="E" class="cls-1" points="142.8 7.2 142.8 14.4 154.8 14.4 154.8 20.8 142.8 20.8 142.8 28 157.2 28 157.2 34.4 136.4 34.4 136.4 .8 157.2 .8 157.2 7.2 142.8 7.2"/>
  <g id="_2nd_S" data-name="2nd S">
    <path class="cls-1" d="m337.6,24.4c0,6-4.6,10.8-13.5,10.8-5.1.1-10.1-1.9-13.7-5.6l3.2-5.6c2.7,3,6.6,4.7,10.6,4.8,4.5,0,7-1.6,7-4s-2.4-3.5-6.8-4.2c-9.5-1.5-12.8-5-12.8-10.1,0-5.6,4.5-10.5,12.9-10.5,4.2,0,8.3,1.4,11.5,4.1l-2.7,5.5c-2.5-2.1-5.7-3.2-8.9-3.2-3.4,0-6.4.9-6.4,3.6,0,2.3,2,3.2,6.8,4,7.4,1.2,12.8,3.2,12.8,10.4"/>
  </g>
  <path id="U" class="cls-1" d="m294.4.8v19.2c0,8.9-5,15.2-13.6,15.2s-13.6-6.4-13.6-15.2V.8h6.4v20c0,4.8,3.2,8,7.2,8s7.2-3.2,7.2-8V.8h6.4Z"/>
  <g id="D">
    <path class="cls-1" d="m245.2,17.6c0-5.8-4.1-10.4-10.1-10.4h-5.9v20.8h5.9c6,0,10.1-4.7,10.1-10.4m6.4,0c0,9.3-6.4,16.8-17.6,16.8h-11.1V.8h11.1c11.6,0,17.7,7.5,17.6,16.8"/>
  </g>
  <polygon id="N" class="cls-1" points="204.4 .8 204.4 34.4 198 34.4 181.2 11.2 181.2 34.4 174.8 34.4 174.8 .8 181.2 .8 198 24 198 .8 204.4 .8"/>
  <g id="Persona">
    <g>
      <path class="cls-1" d="m64.3,17.6c0,3.1-2.5,5.6-5.6,5.6s-5.6-2.5-5.6-5.6,2.5-5.6,5.6-5.6c3.1-.1,5.6,2.4,5.6,5.6q0-.1,0,0"/>
      <path class="cls-1" d="m63.6,27.6c-3.2,1.5-6.8,1.5-9.9,0-1.3,1.7-2.4,3.6-3.3,5.6,5.2,2.7,11.3,2.7,16.4,0-.7-2-1.8-3.9-3.2-5.6"/>
    </g>
  </g>
  <g id="Bogen">
    <path id="SVGID" class="cls-1" d="m41,17.6c0,4.7,1.9,9.1,5.2,12.4.9-2,2.1-4,3.5-5.7-3.8-5-2.8-12,2.2-15.7s12-2.7,15.6,2.3c3.1,4,3.1,9.6,0,13.6,1.4,1.8,2.6,3.7,3.5,5.7,6.9-6.9,7-18.1,0-24.9-7-6.9-18.1-7-24.9,0-3.3,3.1-5.2,7.5-5.1,12.3"/>
  </g>
</svg>